<svg xmlns="http://www.w3.org/2000/svg" xmlns:xlink="http://www.w3.org/1999/xlink" width="500" zoomAndPan="magnify" viewBox="0 0 375 374.999991" height="500" preserveAspectRatio="xMidYMid meet" version="1.0"><defs><clipPath id="f57ee98637"><path d="M 100.488281 146.964844 L 284 146.964844 L 284 362.964844 L 100.488281 362.964844 Z M 100.488281 146.964844 " clip-rule="nonzero"/></clipPath><clipPath id="897ec44f3f"><path d="M 61 5.375 L 293 5.375 L 293 152 L 61 152 Z M 61 5.375 " clip-rule="nonzero"/></clipPath><clipPath id="0258b5754a"><path d="M 32.796875 140 L 321.546875 140 L 321.546875 168 L 32.796875 168 Z M 32.796875 140 " clip-rule="nonzero"/></clipPath></defs><g clip-path="url(#f57ee98637)"><path fill="#f5e6e8" d="M 224.71875 211.402344 C 224.667969 216.738281 223.289062 221.070312 220.503906 224.445312 C 217.746094 227.792969 213.003906 231.800781 207.910156 233.386719 C 179.542969 242.25 158.039062 267.167969 157.296875 311.414062 C 167.476562 286.351562 185.332031 276.015625 199.65625 272.179688 C 223.867188 265.699219 236.859375 279.441406 236.734375 297.089844 C 236.734375 307.800781 231.265625 315.191406 221.179688 318.613281 C 216.191406 320.320312 210.179688 321.148438 203.144531 321.148438 L 146.730469 321.148438 L 146.730469 188.582031 L 193.585938 188.582031 C 203.660156 188.632812 211.371094 190.535156 216.652344 194.339844 C 221.996094 198.191406 224.667969 203.640625 224.71875 210.777344 Z M 100.488281 362.753906 L 203.144531 362.753906 C 215.375 362.753906 226.414062 361.511719 236.332031 359.054688 C 246.195312 356.597656 254.722656 352.882812 261.820312 347.964844 C 268.898438 343.023438 274.351562 336.851562 278.152344 329.464844 C 281.964844 322.0625 283.859375 313.421875 283.910156 303.5625 L 283.910156 302.960938 C 283.859375 293.351562 282.21875 285.171875 278.980469 278.449219 C 275.746094 271.714844 271.117188 266.0625 265.109375 261.492188 C 259.085938 256.917969 251.898438 253.0625 243.535156 249.933594 C 248.714844 247.105469 253.492188 243.609375 257.757812 239.445312 C 262.023438 235.28125 265.410156 230.253906 267.980469 224.34375 C 270.503906 218.4375 271.832031 211.449219 271.882812 203.378906 L 271.882812 202.765625 C 271.882812 195.371094 270.652344 188.632812 268.195312 182.574219 C 265.722656 176.511719 262.023438 171.011719 257.078125 166.082031 C 250.871094 159.867188 243.007812 155.136719 233.5 151.898438 C 224.003906 148.613281 213.054688 146.964844 200.679688 146.964844 L 100.488281 146.964844 Z M 100.488281 362.753906 " fill-opacity="1" fill-rule="nonzero"/></g><g clip-path="url(#897ec44f3f)"><path fill="#ffde59" d="M 119.261719 5.375 L 177.351562 82.425781 L 235.441406 5.375 L 235.441406 121.507812 C 260.207031 128.109375 280.425781 138.792969 292.949219 151.894531 C 270.199219 143.527344 243.035156 137.574219 213.304688 134.882812 L 213.304688 73.703125 L 177.351562 125.886719 L 141.402344 73.703125 L 141.402344 134.882812 C 111.671875 137.574219 84.507812 143.527344 61.757812 151.894531 C 74.28125 138.792969 94.5 128.109375 119.261719 121.507812 Z M 119.261719 5.375 " fill-opacity="1" fill-rule="evenodd"/></g><g clip-path="url(#0258b5754a)"><path fill="#ffde59" d="M 177.351562 140.394531 C 233.335938 140.394531 284.199219 150.804688 321.824219 167.757812 C 280.226562 158.285156 230.621094 152.78125 177.351562 152.78125 C 124.085938 152.78125 74.480469 158.285156 32.882812 167.757812 C 70.503906 150.804688 121.371094 140.394531 177.351562 140.394531 Z M 177.351562 140.394531 " fill-opacity="1" fill-rule="evenodd"/></g></svg>