<svg xmlns="http://www.w3.org/2000/svg" xmlns:xlink="http://www.w3.org/1999/xlink" width="500" zoomAndPan="magnify" viewBox="0 0 375 374.999991" height="500" preserveAspectRatio="xMidYMid meet" version="1.0"><defs><clipPath id="5ba2badcde"><path d="M 0 0 L 375 0 L 375 323 L 0 323 Z M 0 0 " clip-rule="nonzero"/></clipPath><clipPath id="abce2fc8c7"><path d="M 354.167969 322.917969 L 20.832031 322.917969 C 9.324219 322.917969 0 313.59375 0 302.082031 L 0 20.832031 C 0 9.324219 9.324219 0 20.832031 0 L 354.167969 0 C 365.675781 0 375 9.324219 375 20.832031 L 375 302.082031 C 375 313.59375 365.675781 322.917969 354.167969 322.917969 Z M 354.167969 322.917969 " clip-rule="nonzero"/></clipPath><radialGradient gradientTransform="matrix(1, 0, 0, 1, -62.499998, -62.499999)" gradientUnits="userSpaceOnUse" r="337.114576" cx="177.593751" id="0499659e63" cy="301.572919" fx="177.593751" fy="301.572919"><stop stop-opacity="1" stop-color="rgb(97.999573%, 93.299866%, 68.199158%)" offset="0"/><stop stop-opacity="1" stop-color="rgb(97.999573%, 93.299866%, 68.199158%)" offset="0.125"/><stop stop-opacity="1" stop-color="rgb(97.999573%, 93.299866%, 68.199158%)" offset="0.152344"/><stop stop-opacity="1" stop-color="rgb(97.999573%, 93.299866%, 68.199158%)" offset="0.164062"/><stop stop-opacity="1" stop-color="rgb(97.999573%, 93.19458%, 68.309021%)" offset="0.167969"/><stop stop-opacity="1" stop-color="rgb(97.999573%, 92.945862%, 68.571472%)" offset="0.171875"/><stop stop-opacity="1" stop-color="rgb(97.999573%, 92.660522%, 68.873596%)" offset="0.175781"/><stop stop-opacity="1" stop-color="rgb(97.999573%, 92.375183%, 69.174194%)" offset="0.179688"/><stop stop-opacity="1" stop-color="rgb(97.999573%, 92.089844%, 69.476318%)" offset="0.183594"/><stop stop-opacity="1" stop-color="rgb(97.999573%, 91.804504%, 69.776917%)" offset="0.1875"/><stop stop-opacity="1" stop-color="rgb(97.999573%, 91.519165%, 70.079041%)" offset="0.191406"/><stop stop-opacity="1" stop-color="rgb(97.999573%, 91.233826%, 70.379639%)" offset="0.195312"/><stop stop-opacity="1" stop-color="rgb(97.999573%, 90.948486%, 70.681763%)" offset="0.199219"/><stop stop-opacity="1" stop-color="rgb(97.999573%, 90.663147%, 70.982361%)" offset="0.203125"/><stop stop-opacity="1" stop-color="rgb(97.999573%, 90.377808%, 71.284485%)" offset="0.207031"/><stop stop-opacity="1" stop-color="rgb(97.999573%, 90.092468%, 71.586609%)" offset="0.210938"/><stop stop-opacity="1" stop-color="rgb(97.999573%, 89.807129%, 71.887207%)" offset="0.214844"/><stop stop-opacity="1" stop-color="rgb(97.999573%, 89.52179%, 72.189331%)" offset="0.21875"/><stop stop-opacity="1" stop-color="rgb(97.999573%, 89.23645%, 72.489929%)" offset="0.222656"/><stop stop-opacity="1" stop-color="rgb(97.999573%, 88.949585%, 72.792053%)" offset="0.226562"/><stop stop-opacity="1" stop-color="rgb(97.999573%, 88.664246%, 73.092651%)" offset="0.230469"/><stop stop-opacity="1" stop-color="rgb(97.999573%, 88.378906%, 73.394775%)" offset="0.234375"/><stop stop-opacity="1" stop-color="rgb(97.999573%, 88.093567%, 73.695374%)" offset="0.238281"/><stop stop-opacity="1" stop-color="rgb(97.999573%, 87.808228%, 73.997498%)" offset="0.242188"/><stop stop-opacity="1" stop-color="rgb(97.999573%, 87.522888%, 74.299622%)" offset="0.246094"/><stop stop-opacity="1" stop-color="rgb(97.999573%, 87.237549%, 74.60022%)" offset="0.25"/><stop stop-opacity="1" stop-color="rgb(97.999573%, 86.952209%, 74.902344%)" offset="0.253906"/><stop stop-opacity="1" stop-color="rgb(97.999573%, 86.66687%, 75.202942%)" offset="0.257812"/><stop stop-opacity="1" stop-color="rgb(97.999573%, 86.381531%, 75.505066%)" offset="0.261719"/><stop stop-opacity="1" stop-color="rgb(97.999573%, 86.096191%, 75.805664%)" offset="0.265625"/><stop stop-opacity="1" stop-color="rgb(97.999573%, 85.810852%, 76.107788%)" offset="0.269531"/><stop stop-opacity="1" stop-color="rgb(97.999573%, 85.525513%, 76.408386%)" offset="0.273438"/><stop stop-opacity="1" stop-color="rgb(97.999573%, 85.240173%, 76.71051%)" offset="0.277344"/><stop stop-opacity="1" stop-color="rgb(97.999573%, 84.954834%, 77.011108%)" offset="0.28125"/><stop stop-opacity="1" stop-color="rgb(97.999573%, 84.669495%, 77.313232%)" offset="0.285156"/><stop stop-opacity="1" stop-color="rgb(97.999573%, 84.384155%, 77.615356%)" offset="0.289062"/><stop stop-opacity="1" stop-color="rgb(97.999573%, 84.098816%, 77.915955%)" offset="0.292969"/><stop stop-opacity="1" stop-color="rgb(97.999573%, 83.813477%, 78.218079%)" offset="0.296875"/><stop stop-opacity="1" stop-color="rgb(97.999573%, 83.528137%, 78.518677%)" offset="0.300781"/><stop stop-opacity="1" stop-color="rgb(97.999573%, 83.242798%, 78.820801%)" offset="0.304688"/><stop stop-opacity="1" stop-color="rgb(97.999573%, 82.957458%, 79.121399%)" offset="0.308594"/><stop stop-opacity="1" stop-color="rgb(97.999573%, 82.672119%, 79.423523%)" offset="0.3125"/><stop stop-opacity="1" stop-color="rgb(97.999573%, 82.38678%, 79.724121%)" offset="0.316406"/><stop stop-opacity="1" stop-color="rgb(97.999573%, 82.10144%, 80.026245%)" offset="0.320312"/><stop stop-opacity="1" stop-color="rgb(97.999573%, 81.816101%, 80.328369%)" offset="0.324219"/><stop stop-opacity="1" stop-color="rgb(97.999573%, 81.530762%, 80.628967%)" offset="0.328125"/><stop stop-opacity="1" stop-color="rgb(97.999573%, 81.245422%, 80.931091%)" offset="0.332031"/><stop stop-opacity="1" stop-color="rgb(97.999573%, 80.960083%, 81.231689%)" offset="0.335938"/><stop stop-opacity="1" stop-color="rgb(97.999573%, 80.674744%, 81.533813%)" offset="0.339844"/><stop stop-opacity="1" stop-color="rgb(97.999573%, 80.389404%, 81.834412%)" offset="0.34375"/><stop stop-opacity="1" stop-color="rgb(97.999573%, 80.102539%, 82.136536%)" offset="0.347656"/><stop stop-opacity="1" stop-color="rgb(97.999573%, 79.8172%, 82.437134%)" offset="0.351562"/><stop stop-opacity="1" stop-color="rgb(97.999573%, 79.53186%, 82.739258%)" offset="0.355469"/><stop stop-opacity="1" stop-color="rgb(97.999573%, 79.246521%, 83.041382%)" offset="0.359375"/><stop stop-opacity="1" stop-color="rgb(97.999573%, 78.961182%, 83.34198%)" offset="0.363281"/><stop stop-opacity="1" stop-color="rgb(97.999573%, 78.675842%, 83.644104%)" offset="0.367188"/><stop stop-opacity="1" stop-color="rgb(97.999573%, 78.390503%, 83.944702%)" offset="0.371094"/><stop stop-opacity="1" stop-color="rgb(97.999573%, 78.105164%, 84.246826%)" offset="0.375"/><stop stop-opacity="1" stop-color="rgb(97.999573%, 77.819824%, 84.547424%)" offset="0.378906"/><stop stop-opacity="1" stop-color="rgb(97.999573%, 77.534485%, 84.849548%)" offset="0.382812"/><stop stop-opacity="1" stop-color="rgb(97.892761%, 77.412415%, 85.162354%)" offset="0.386719"/><stop stop-opacity="1" stop-color="rgb(97.660828%, 77.513123%, 85.461426%)" offset="0.394531"/><stop stop-opacity="1" stop-color="rgb(97.409058%, 77.674866%, 85.733032%)" offset="0.402344"/><stop stop-opacity="1" stop-color="rgb(97.155762%, 77.835083%, 86.003113%)" offset="0.410156"/><stop stop-opacity="1" stop-color="rgb(96.902466%, 77.996826%, 86.274719%)" offset="0.417969"/><stop stop-opacity="1" stop-color="rgb(96.650696%, 78.157043%, 86.546326%)" offset="0.425781"/><stop stop-opacity="1" stop-color="rgb(96.3974%, 78.317261%, 86.816406%)" offset="0.433594"/><stop stop-opacity="1" stop-color="rgb(96.144104%, 78.479004%, 87.088013%)" offset="0.441406"/><stop stop-opacity="1" stop-color="rgb(95.892334%, 78.639221%, 87.359619%)" offset="0.449219"/><stop stop-opacity="1" stop-color="rgb(95.639038%, 78.800964%, 87.6297%)" offset="0.457031"/><stop stop-opacity="1" stop-color="rgb(95.385742%, 78.961182%, 87.901306%)" offset="0.464844"/><stop stop-opacity="1" stop-color="rgb(95.133972%, 79.121399%, 88.172913%)" offset="0.472656"/><stop stop-opacity="1" stop-color="rgb(94.880676%, 79.283142%, 88.444519%)" offset="0.480469"/><stop stop-opacity="1" stop-color="rgb(94.628906%, 79.443359%, 88.7146%)" offset="0.488281"/><stop stop-opacity="1" stop-color="rgb(94.37561%, 79.605103%, 88.986206%)" offset="0.496094"/><stop stop-opacity="1" stop-color="rgb(94.184875%, 79.725647%, 89.189148%)" offset="0.503906"/><stop stop-opacity="1" stop-color="rgb(94.059753%, 79.804993%, 89.324951%)" offset="0.507812"/><stop stop-opacity="1" stop-color="rgb(93.933105%, 79.885864%, 89.460754%)" offset="0.511719"/><stop stop-opacity="1" stop-color="rgb(93.806458%, 79.966736%, 89.595032%)" offset="0.515625"/><stop stop-opacity="1" stop-color="rgb(93.67981%, 80.047607%, 89.730835%)" offset="0.519531"/><stop stop-opacity="1" stop-color="rgb(93.553162%, 80.126953%, 89.866638%)" offset="0.523438"/><stop stop-opacity="1" stop-color="rgb(93.426514%, 80.207825%, 90.002441%)" offset="0.527344"/><stop stop-opacity="1" stop-color="rgb(93.301392%, 80.288696%, 90.138245%)" offset="0.53125"/><stop stop-opacity="1" stop-color="rgb(93.174744%, 80.368042%, 90.274048%)" offset="0.535156"/><stop stop-opacity="1" stop-color="rgb(93.048096%, 80.448914%, 90.409851%)" offset="0.539062"/><stop stop-opacity="1" stop-color="rgb(92.921448%, 80.529785%, 90.544128%)" offset="0.542969"/><stop stop-opacity="1" stop-color="rgb(92.7948%, 80.609131%, 90.679932%)" offset="0.546875"/><stop stop-opacity="1" stop-color="rgb(92.559814%, 80.755615%, 90.930176%)" offset="0.550781"/><stop stop-opacity="1" stop-color="rgb(92.240906%, 80.944824%, 91.261292%)" offset="0.5625"/><stop stop-opacity="1" stop-color="rgb(91.949463%, 81.109619%, 91.557312%)" offset="0.574219"/><stop stop-opacity="1" stop-color="rgb(91.656494%, 81.274414%, 91.854858%)" offset="0.585938"/><stop stop-opacity="1" stop-color="rgb(91.365051%, 81.439209%, 92.150879%)" offset="0.597656"/><stop stop-opacity="1" stop-color="rgb(91.073608%, 81.604004%, 92.446899%)" offset="0.609375"/><stop stop-opacity="1" stop-color="rgb(90.782166%, 81.768799%, 92.74292%)" offset="0.621094"/><stop stop-opacity="1" stop-color="rgb(90.538025%, 81.906128%, 92.990112%)" offset="0.632812"/><stop stop-opacity="1" stop-color="rgb(90.344238%, 82.015991%, 93.188477%)" offset="0.640625"/><stop stop-opacity="1" stop-color="rgb(90.150452%, 82.125854%, 93.385315%)" offset="0.648438"/><stop stop-opacity="1" stop-color="rgb(89.955139%, 82.235718%, 93.583679%)" offset="0.65625"/><stop stop-opacity="1" stop-color="rgb(89.761353%, 82.345581%, 93.780518%)" offset="0.664062"/><stop stop-opacity="1" stop-color="rgb(89.56604%, 82.455444%, 93.978882%)" offset="0.671875"/><stop stop-opacity="1" stop-color="rgb(89.372253%, 82.565308%, 94.177246%)" offset="0.679688"/><stop stop-opacity="1" stop-color="rgb(89.176941%, 82.673645%, 94.374084%)" offset="0.6875"/><stop stop-opacity="1" stop-color="rgb(88.983154%, 82.783508%, 94.572449%)" offset="0.695312"/><stop stop-opacity="1" stop-color="rgb(88.787842%, 82.893372%, 94.769287%)" offset="0.703125"/><stop stop-opacity="1" stop-color="rgb(88.594055%, 83.003235%, 94.967651%)" offset="0.710938"/><stop stop-opacity="1" stop-color="rgb(88.398743%, 83.113098%, 95.16449%)" offset="0.71875"/><stop stop-opacity="1" stop-color="rgb(88.204956%, 83.222961%, 95.362854%)" offset="0.726562"/><stop stop-opacity="1" stop-color="rgb(88.009644%, 83.332825%, 95.559692%)" offset="0.734375"/><stop stop-opacity="1" stop-color="rgb(87.815857%, 83.442688%, 95.758057%)" offset="0.742188"/><stop stop-opacity="1" stop-color="rgb(87.620544%, 83.552551%, 95.954895%)" offset="0.75"/><stop stop-opacity="1" stop-color="rgb(87.37793%, 83.68988%, 96.202087%)" offset="0.757812"/><stop stop-opacity="1" stop-color="rgb(87.084961%, 83.854675%, 96.499634%)" offset="0.769531"/><stop stop-opacity="1" stop-color="rgb(86.793518%, 84.01947%, 96.795654%)" offset="0.78125"/><stop stop-opacity="1" stop-color="rgb(86.502075%, 84.184265%, 97.091675%)" offset="0.792969"/><stop stop-opacity="1" stop-color="rgb(86.218262%, 84.347534%, 97.395325%)" offset="0.804688"/><stop stop-opacity="1" stop-color="rgb(85.978699%, 84.490967%, 97.666931%)" offset="0.828125"/><stop stop-opacity="1" stop-color="rgb(85.797119%, 84.60083%, 97.877502%)" offset="0.847656"/><stop stop-opacity="1" stop-color="rgb(85.554504%, 84.745789%, 98.156738%)" offset="0.863281"/><stop stop-opacity="1" stop-color="rgb(85.270691%, 84.916687%, 98.48175%)" offset="0.894531"/><stop stop-opacity="1" stop-color="rgb(85.047913%, 85.049438%, 98.738098%)" offset="0.917969"/><stop stop-opacity="1" stop-color="rgb(84.785461%, 85.206604%, 99.040222%)" offset="0.9375"/><stop stop-opacity="1" stop-color="rgb(84.460449%, 85.401917%, 99.412537%)" offset="0.96875"/><stop stop-opacity="1" stop-color="rgb(84.298706%, 85.499573%, 99.598694%)" offset="1"/></radialGradient><clipPath id="573b60befa"><path d="M 260 93 L 292 93 L 292 261 L 260 261 Z M 260 93 " clip-rule="nonzero"/></clipPath><clipPath id="0407803cbf"><path d="M 260.417969 93.199219 L 291.667969 93.199219 L 291.667969 254.863281 C 291.667969 257.925781 289.332031 260.417969 286.457031 260.417969 L 265.625 260.417969 C 262.75 260.417969 260.417969 257.925781 260.417969 254.863281 Z M 260.417969 93.199219 " clip-rule="nonzero"/></clipPath><linearGradient x1="32.5" gradientTransform="matrix(10.416667, 0, 0, 10.416667, -62.499998, -62.499998)" y1="30.999998" x2="32.5" gradientUnits="userSpaceOnUse" y2="14.947" id="37bf90a6c5"><stop stop-opacity="1" stop-color="rgb(76.098633%, 40.39917%, 8.198547%)" offset="0"/><stop stop-opacity="1" stop-color="rgb(76.098633%, 40.39917%, 8.198547%)" offset="0.125"/><stop stop-opacity="1" stop-color="rgb(76.026917%, 40.267944%, 8.198547%)" offset="0.132812"/><stop stop-opacity="1" stop-color="rgb(75.80719%, 39.868164%, 8.198547%)" offset="0.136719"/><stop stop-opacity="1" stop-color="rgb(75.660706%, 39.599609%, 8.198547%)" offset="0.140625"/><stop stop-opacity="1" stop-color="rgb(75.512695%, 39.331055%, 8.198547%)" offset="0.144531"/><stop stop-opacity="1" stop-color="rgb(75.364685%, 39.0625%, 8.198547%)" offset="0.148437"/><stop stop-opacity="1" stop-color="rgb(75.216675%, 38.793945%, 8.198547%)" offset="0.152344"/><stop stop-opacity="1" stop-color="rgb(75.07019%, 38.525391%, 8.198547%)" offset="0.15625"/><stop stop-opacity="1" stop-color="rgb(74.92218%, 38.256836%, 8.198547%)" offset="0.160156"/><stop stop-opacity="1" stop-color="rgb(74.77417%, 37.988281%, 8.198547%)" offset="0.164062"/><stop stop-opacity="1" stop-color="rgb(74.62616%, 37.718201%, 8.198547%)" offset="0.167969"/><stop stop-opacity="1" stop-color="rgb(74.479675%, 37.449646%, 8.198547%)" offset="0.171875"/><stop stop-opacity="1" stop-color="rgb(74.331665%, 37.181091%, 8.198547%)" offset="0.175781"/><stop stop-opacity="1" stop-color="rgb(74.183655%, 36.912537%, 8.198547%)" offset="0.179687"/><stop stop-opacity="1" stop-color="rgb(74.035645%, 36.643982%, 8.198547%)" offset="0.183594"/><stop stop-opacity="1" stop-color="rgb(73.88916%, 36.375427%, 8.198547%)" offset="0.1875"/><stop stop-opacity="1" stop-color="rgb(73.74115%, 36.105347%, 8.198547%)" offset="0.191406"/><stop stop-opacity="1" stop-color="rgb(73.59314%, 35.836792%, 8.198547%)" offset="0.195312"/><stop stop-opacity="1" stop-color="rgb(73.445129%, 35.568237%, 8.198547%)" offset="0.199219"/><stop stop-opacity="1" stop-color="rgb(73.298645%, 35.299683%, 8.198547%)" offset="0.203125"/><stop stop-opacity="1" stop-color="rgb(73.150635%, 35.031128%, 8.198547%)" offset="0.207031"/><stop stop-opacity="1" stop-color="rgb(73.002625%, 34.762573%, 8.198547%)" offset="0.210937"/><stop stop-opacity="1" stop-color="rgb(72.854614%, 34.494019%, 8.198547%)" offset="0.214844"/><stop stop-opacity="1" stop-color="rgb(72.70813%, 34.225464%, 8.198547%)" offset="0.21875"/><stop stop-opacity="1" stop-color="rgb(72.56012%, 33.955383%, 8.198547%)" offset="0.222656"/><stop stop-opacity="1" stop-color="rgb(72.412109%, 33.686829%, 8.198547%)" offset="0.226562"/><stop stop-opacity="1" stop-color="rgb(72.257996%, 33.399963%, 8.203125%)" offset="0.230469"/><stop stop-opacity="1" stop-color="rgb(72.103882%, 33.113098%, 8.207703%)" offset="0.234375"/><stop stop-opacity="1" stop-color="rgb(71.931458%, 32.775879%, 8.222961%)" offset="0.238281"/><stop stop-opacity="1" stop-color="rgb(71.759033%, 32.440186%, 8.239746%)" offset="0.242187"/><stop stop-opacity="1" stop-color="rgb(71.586609%, 32.102966%, 8.255005%)" offset="0.246094"/><stop stop-opacity="1" stop-color="rgb(71.41571%, 31.767273%, 8.270264%)" offset="0.25"/><stop stop-opacity="1" stop-color="rgb(71.243286%, 31.43158%, 8.285522%)" offset="0.253906"/><stop stop-opacity="1" stop-color="rgb(71.072388%, 31.095886%, 8.302307%)" offset="0.257812"/><stop stop-opacity="1" stop-color="rgb(70.899963%, 30.758667%, 8.317566%)" offset="0.261719"/><stop stop-opacity="1" stop-color="rgb(70.727539%, 30.422974%, 8.332825%)" offset="0.265625"/><stop stop-opacity="1" stop-color="rgb(70.555115%, 30.08728%, 8.348083%)" offset="0.269531"/><stop stop-opacity="1" stop-color="rgb(70.384216%, 29.751587%, 8.364868%)" offset="0.273437"/><stop stop-opacity="1" stop-color="rgb(70.211792%, 29.414368%, 8.380127%)" offset="0.277344"/><stop stop-opacity="1" stop-color="rgb(70.039368%, 29.078674%, 8.395386%)" offset="0.28125"/><stop stop-opacity="1" stop-color="rgb(69.866943%, 28.742981%, 8.410645%)" offset="0.285156"/><stop stop-opacity="1" stop-color="rgb(69.696045%, 28.407288%, 8.427429%)" offset="0.289062"/><stop stop-opacity="1" stop-color="rgb(69.523621%, 28.070068%, 8.442688%)" offset="0.292969"/><stop stop-opacity="1" stop-color="rgb(69.352722%, 27.734375%, 8.457947%)" offset="0.296875"/><stop stop-opacity="1" stop-color="rgb(69.180298%, 27.398682%, 8.473206%)" offset="0.300781"/><stop stop-opacity="1" stop-color="rgb(69.007874%, 27.062988%, 8.48999%)" offset="0.304688"/><stop stop-opacity="1" stop-color="rgb(68.835449%, 26.725769%, 8.505249%)" offset="0.308594"/><stop stop-opacity="1" stop-color="rgb(68.664551%, 26.390076%, 8.520508%)" offset="0.3125"/><stop stop-opacity="1" stop-color="rgb(68.492126%, 26.052856%, 8.535767%)" offset="0.316406"/><stop stop-opacity="1" stop-color="rgb(68.319702%, 25.717163%, 8.552551%)" offset="0.320312"/><stop stop-opacity="1" stop-color="rgb(68.147278%, 25.38147%, 8.56781%)" offset="0.324219"/><stop stop-opacity="1" stop-color="rgb(67.976379%, 25.045776%, 8.583069%)" offset="0.328125"/><stop stop-opacity="1" stop-color="rgb(67.887878%, 24.871826%, 8.590698%)" offset="0.34375"/><stop stop-opacity="1" stop-color="rgb(67.799377%, 24.699402%, 8.599854%)" offset="0.375"/><stop stop-opacity="1" stop-color="rgb(67.799377%, 24.699402%, 8.599854%)" offset="0.5"/><stop stop-opacity="1" stop-color="rgb(67.799377%, 24.699402%, 8.599854%)" offset="1"/></linearGradient><clipPath id="0b2d392aa8"><path d="M 208 41 L 344 41 L 344 209 L 208 209 Z M 208 41 " clip-rule="nonzero"/></clipPath><clipPath id="8971d60098"><path d="M 326.449219 120.144531 C 330.738281 114.167969 333.332031 106.886719 333.332031 98.957031 C 333.332031 80.449219 319.480469 65.324219 301.605469 62.980469 C 299.375 50.863281 288.800781 41.667969 276.042969 41.667969 C 263.28125 41.667969 252.707031 50.863281 250.480469 62.980469 C 232.605469 65.324219 218.75 80.449219 218.75 98.957031 C 218.75 106.886719 221.34375 114.167969 225.636719 120.144531 C 215.28125 126.574219 208.332031 137.957031 208.332031 151.042969 C 208.332031 171.175781 224.65625 187.5 244.792969 187.5 C 245.425781 187.5 246.019531 187.34375 246.644531 187.3125 C 250.894531 199.519531 262.386719 208.332031 276.042969 208.332031 C 289.699219 208.332031 301.1875 199.519531 305.4375 187.3125 C 306.0625 187.34375 306.65625 187.5 307.292969 187.5 C 327.425781 187.5 343.75 171.175781 343.75 151.042969 C 343.75 137.957031 336.800781 126.574219 326.449219 120.144531 Z M 326.449219 120.144531 " clip-rule="nonzero"/></clipPath><linearGradient x1="30.508084" gradientTransform="matrix(10.416667, 0, 0, 10.416667, -62.499998, -62.499998)" y1="9.205009" x2="33.636632" gradientUnits="userSpaceOnUse" y2="26.945815" id="c4ca6dee38"><stop stop-opacity="1" stop-color="rgb(12.89978%, 67.799377%, 39.199829%)" offset="0"/><stop stop-opacity="1" stop-color="rgb(12.797546%, 67.625427%, 39.060974%)" offset="0.03125"/><stop stop-opacity="1" stop-color="rgb(12.617493%, 67.315674%, 38.816833%)" offset="0.046875"/><stop stop-opacity="1" stop-color="rgb(12.458801%, 67.045593%, 38.601685%)" offset="0.0625"/><stop stop-opacity="1" stop-color="rgb(12.301636%, 66.773987%, 38.388062%)" offset="0.078125"/><stop stop-opacity="1" stop-color="rgb(12.142944%, 66.503906%, 38.174438%)" offset="0.09375"/><stop stop-opacity="1" stop-color="rgb(11.985779%, 66.233826%, 37.95929%)" offset="0.109375"/><stop stop-opacity="1" stop-color="rgb(11.828613%, 65.963745%, 37.745667%)" offset="0.125"/><stop stop-opacity="1" stop-color="rgb(11.669922%, 65.692139%, 37.532043%)" offset="0.125325"/><stop stop-opacity="1" stop-color="rgb(11.592102%, 65.557861%, 37.425232%)" offset="0.140625"/><stop stop-opacity="1" stop-color="rgb(11.512756%, 65.422058%, 37.316895%)" offset="0.15625"/><stop stop-opacity="1" stop-color="rgb(11.354065%, 65.151978%, 37.103271%)" offset="0.171875"/><stop stop-opacity="1" stop-color="rgb(11.196899%, 64.880371%, 36.889648%)" offset="0.1875"/><stop stop-opacity="1" stop-color="rgb(11.039734%, 64.610291%, 36.6745%)" offset="0.203125"/><stop stop-opacity="1" stop-color="rgb(10.881042%, 64.34021%, 36.460876%)" offset="0.21875"/><stop stop-opacity="1" stop-color="rgb(10.723877%, 64.070129%, 36.247253%)" offset="0.234375"/><stop stop-opacity="1" stop-color="rgb(10.565186%, 63.798523%, 36.032104%)" offset="0.25"/><stop stop-opacity="1" stop-color="rgb(10.40802%, 63.528442%, 35.818481%)" offset="0.265625"/><stop stop-opacity="1" stop-color="rgb(10.250854%, 63.258362%, 35.604858%)" offset="0.28125"/><stop stop-opacity="1" stop-color="rgb(10.092163%, 62.988281%, 35.389709%)" offset="0.296875"/><stop stop-opacity="1" stop-color="rgb(9.934998%, 62.716675%, 35.176086%)" offset="0.3125"/><stop stop-opacity="1" stop-color="rgb(9.776306%, 62.446594%, 34.962463%)" offset="0.328125"/><stop stop-opacity="1" stop-color="rgb(9.619141%, 62.176514%, 34.747314%)" offset="0.34375"/><stop stop-opacity="1" stop-color="rgb(9.460449%, 61.904907%, 34.533691%)" offset="0.359375"/><stop stop-opacity="1" stop-color="rgb(9.303284%, 61.634827%, 34.320068%)" offset="0.375"/><stop stop-opacity="1" stop-color="rgb(9.146118%, 61.364746%, 34.104919%)" offset="0.390625"/><stop stop-opacity="1" stop-color="rgb(8.987427%, 61.094666%, 33.891296%)" offset="0.40625"/><stop stop-opacity="1" stop-color="rgb(8.830261%, 60.823059%, 33.677673%)" offset="0.421875"/><stop stop-opacity="1" stop-color="rgb(8.67157%, 60.552979%, 33.462524%)" offset="0.4375"/><stop stop-opacity="1" stop-color="rgb(8.514404%, 60.282898%, 33.248901%)" offset="0.453125"/><stop stop-opacity="1" stop-color="rgb(8.357239%, 60.012817%, 33.035278%)" offset="0.46875"/><stop stop-opacity="1" stop-color="rgb(8.198547%, 59.741211%, 32.820129%)" offset="0.484375"/><stop stop-opacity="1" stop-color="rgb(8.041382%, 59.47113%, 32.606506%)" offset="0.5"/><stop stop-opacity="1" stop-color="rgb(7.88269%, 59.20105%, 32.392883%)" offset="0.515625"/><stop stop-opacity="1" stop-color="rgb(7.725525%, 58.929443%, 32.177734%)" offset="0.53125"/><stop stop-opacity="1" stop-color="rgb(7.568359%, 58.659363%, 31.964111%)" offset="0.546875"/><stop stop-opacity="1" stop-color="rgb(7.409668%, 58.389282%, 31.748962%)" offset="0.5625"/><stop stop-opacity="1" stop-color="rgb(7.252502%, 58.119202%, 31.535339%)" offset="0.578125"/><stop stop-opacity="1" stop-color="rgb(7.093811%, 57.847595%, 31.321716%)" offset="0.59375"/><stop stop-opacity="1" stop-color="rgb(6.936646%, 57.577515%, 31.106567%)" offset="0.609375"/><stop stop-opacity="1" stop-color="rgb(6.777954%, 57.307434%, 30.892944%)" offset="0.625"/><stop stop-opacity="1" stop-color="rgb(6.620789%, 57.035828%, 30.679321%)" offset="0.640625"/><stop stop-opacity="1" stop-color="rgb(6.463623%, 56.765747%, 30.464172%)" offset="0.65625"/><stop stop-opacity="1" stop-color="rgb(6.304932%, 56.495667%, 30.250549%)" offset="0.671875"/><stop stop-opacity="1" stop-color="rgb(6.147766%, 56.225586%, 30.036926%)" offset="0.6875"/><stop stop-opacity="1" stop-color="rgb(5.989075%, 55.953979%, 29.821777%)" offset="0.703125"/><stop stop-opacity="1" stop-color="rgb(5.831909%, 55.683899%, 29.608154%)" offset="0.71875"/><stop stop-opacity="1" stop-color="rgb(5.674744%, 55.413818%, 29.394531%)" offset="0.734375"/><stop stop-opacity="1" stop-color="rgb(5.516052%, 55.143738%, 29.179382%)" offset="0.75"/><stop stop-opacity="1" stop-color="rgb(5.358887%, 54.872131%, 28.965759%)" offset="0.765625"/><stop stop-opacity="1" stop-color="rgb(5.200195%, 54.602051%, 28.752136%)" offset="0.78125"/><stop stop-opacity="1" stop-color="rgb(5.04303%, 54.33197%, 28.536987%)" offset="0.796875"/><stop stop-opacity="1" stop-color="rgb(4.885864%, 54.060364%, 28.323364%)" offset="0.8125"/><stop stop-opacity="1" stop-color="rgb(4.727173%, 53.790283%, 28.109741%)" offset="0.828125"/><stop stop-opacity="1" stop-color="rgb(4.570007%, 53.520203%, 27.894592%)" offset="0.84375"/><stop stop-opacity="1" stop-color="rgb(4.411316%, 53.250122%, 27.680969%)" offset="0.859375"/><stop stop-opacity="1" stop-color="rgb(4.25415%, 52.978516%, 27.467346%)" offset="0.874675"/><stop stop-opacity="1" stop-color="rgb(4.174805%, 52.844238%, 27.360535%)" offset="0.875"/><stop stop-opacity="1" stop-color="rgb(4.095459%, 52.708435%, 27.252197%)" offset="0.890625"/><stop stop-opacity="1" stop-color="rgb(3.938293%, 52.438354%, 27.038574%)" offset="0.90625"/><stop stop-opacity="1" stop-color="rgb(3.781128%, 52.168274%, 26.824951%)" offset="0.921875"/><stop stop-opacity="1" stop-color="rgb(3.622437%, 51.896667%, 26.609802%)" offset="0.9375"/><stop stop-opacity="1" stop-color="rgb(3.465271%, 51.626587%, 26.396179%)" offset="0.953125"/><stop stop-opacity="1" stop-color="rgb(3.30658%, 51.356506%, 26.182556%)" offset="0.96875"/><stop stop-opacity="1" stop-color="rgb(3.163147%, 51.109314%, 25.987244%)" offset="1"/></linearGradient><clipPath id="4e8959441c"><path d="M 0 239 L 375 239 L 375 375 L 0 375 Z M 0 239 " clip-rule="nonzero"/></clipPath><clipPath id="2e8ff3d51d"><path d="M 375 260.417969 L 375 270.832031 C 354.167969 250 322.917969 239.582031 276.042969 239.582031 C 229.457031 239.582031 177.738281 270.4375 139.667969 294.644531 C 110.46875 313.207031 76.519531 322.917969 41.925781 322.917969 L 0 322.917969 L 0 354.167969 C 0 365.675781 9.324219 375 20.832031 375 L 354.167969 375 C 365.675781 375 375 365.675781 375 354.167969 Z M 375 260.417969 " clip-rule="nonzero"/></clipPath><linearGradient x1="24" gradientTransform="matrix(10.416667, 0, 0, 10.416667, -62.499998, -62.499998)" y1="28.999998" x2="24" gradientUnits="userSpaceOnUse" y2="41.999997" id="ae18fb2ccc"><stop stop-opacity="1" stop-color="rgb(9.275818%, 61.585999%, 34.280396%)" offset="0"/><stop stop-opacity="1" stop-color="rgb(9.190369%, 61.44104%, 34.165955%)" offset="0.03125"/><stop stop-opacity="1" stop-color="rgb(9.022522%, 61.152649%, 33.938599%)" offset="0.0625"/><stop stop-opacity="1" stop-color="rgb(8.853149%, 60.864258%, 33.709717%)" offset="0.09375"/><stop stop-opacity="1" stop-color="rgb(8.685303%, 60.575867%, 33.480835%)" offset="0.125"/><stop stop-opacity="1" stop-color="rgb(8.517456%, 60.28595%, 33.251953%)" offset="0.15625"/><stop stop-opacity="1" stop-color="rgb(8.348083%, 59.997559%, 33.023071%)" offset="0.1875"/><stop stop-opacity="1" stop-color="rgb(8.180237%, 59.709167%, 32.794189%)" offset="0.21875"/><stop stop-opacity="1" stop-color="rgb(8.010864%, 59.420776%, 32.565308%)" offset="0.25"/><stop stop-opacity="1" stop-color="rgb(7.843018%, 59.130859%, 32.337952%)" offset="0.28125"/><stop stop-opacity="1" stop-color="rgb(7.675171%, 58.842468%, 32.10907%)" offset="0.3125"/><stop stop-opacity="1" stop-color="rgb(7.505798%, 58.554077%, 31.880188%)" offset="0.34375"/><stop stop-opacity="1" stop-color="rgb(7.337952%, 58.26416%, 31.651306%)" offset="0.375"/><stop stop-opacity="1" stop-color="rgb(7.168579%, 57.975769%, 31.422424%)" offset="0.40625"/><stop stop-opacity="1" stop-color="rgb(7.000732%, 57.687378%, 31.193542%)" offset="0.4375"/><stop stop-opacity="1" stop-color="rgb(6.832886%, 57.398987%, 30.966187%)" offset="0.46875"/><stop stop-opacity="1" stop-color="rgb(6.663513%, 57.10907%, 30.737305%)" offset="0.5"/><stop stop-opacity="1" stop-color="rgb(6.495667%, 56.820679%, 30.508423%)" offset="0.53125"/><stop stop-opacity="1" stop-color="rgb(6.326294%, 56.532288%, 30.279541%)" offset="0.5625"/><stop stop-opacity="1" stop-color="rgb(6.158447%, 56.243896%, 30.050659%)" offset="0.59375"/><stop stop-opacity="1" stop-color="rgb(5.989075%, 55.953979%, 29.821777%)" offset="0.625"/><stop stop-opacity="1" stop-color="rgb(5.821228%, 55.665588%, 29.594421%)" offset="0.65625"/><stop stop-opacity="1" stop-color="rgb(5.653381%, 55.377197%, 29.36554%)" offset="0.6875"/><stop stop-opacity="1" stop-color="rgb(5.484009%, 55.088806%, 29.136658%)" offset="0.71875"/><stop stop-opacity="1" stop-color="rgb(5.316162%, 54.798889%, 28.907776%)" offset="0.75"/><stop stop-opacity="1" stop-color="rgb(5.14679%, 54.510498%, 28.678894%)" offset="0.78125"/><stop stop-opacity="1" stop-color="rgb(4.978943%, 54.222107%, 28.450012%)" offset="0.8125"/><stop stop-opacity="1" stop-color="rgb(4.811096%, 53.93219%, 28.222656%)" offset="0.84375"/><stop stop-opacity="1" stop-color="rgb(4.641724%, 53.643799%, 27.993774%)" offset="0.875"/><stop stop-opacity="1" stop-color="rgb(4.473877%, 53.355408%, 27.764893%)" offset="0.90625"/><stop stop-opacity="1" stop-color="rgb(4.304504%, 53.067017%, 27.536011%)" offset="0.9375"/><stop stop-opacity="1" stop-color="rgb(4.136658%, 52.7771%, 27.307129%)" offset="0.96875"/><stop stop-opacity="1" stop-color="rgb(3.968811%, 52.488708%, 27.078247%)" offset="1"/></linearGradient></defs><g clip-path="url(#5ba2badcde)"><g clip-path="url(#abce2fc8c7)"><path fill="url(#0499659e63)" d="M 0 0 L 0 322.917969 L 375 322.917969 L 375 0 Z M 0 0 " fill-rule="nonzero"/></g></g><path fill="#ffffff" d="M 187.5 239.582031 C 187.5 240.777344 187.472656 241.96875 187.414062 243.160156 C 187.355469 244.351562 187.265625 245.542969 187.148438 246.730469 C 187.03125 247.917969 186.886719 249.101562 186.710938 250.28125 C 186.535156 251.460938 186.332031 252.636719 186.097656 253.808594 C 185.867188 254.980469 185.605469 256.144531 185.316406 257.300781 C 185.023438 258.457031 184.707031 259.609375 184.359375 260.75 C 184.015625 261.890625 183.640625 263.023438 183.238281 264.148438 C 182.835938 265.273438 182.40625 266.386719 181.949219 267.488281 C 181.492188 268.589844 181.007812 269.679688 180.5 270.757812 C 179.988281 271.839844 179.453125 272.902344 178.890625 273.957031 C 178.328125 275.007812 177.738281 276.046875 177.125 277.070312 C 176.511719 278.09375 175.875 279.101562 175.210938 280.09375 C 174.546875 281.085938 173.863281 282.0625 173.152344 283.019531 C 172.441406 283.976562 171.707031 284.917969 170.949219 285.839844 C 170.191406 286.761719 169.414062 287.667969 168.609375 288.550781 C 167.808594 289.433594 166.988281 290.300781 166.144531 291.144531 C 165.300781 291.988281 164.433594 292.808594 163.550781 293.609375 C 162.667969 294.414062 161.761719 295.191406 160.839844 295.949219 C 159.917969 296.707031 158.976562 297.441406 158.019531 298.152344 C 157.0625 298.863281 156.085938 299.546875 155.09375 300.210938 C 154.101562 300.875 153.09375 301.511719 152.070312 302.125 C 151.046875 302.738281 150.007812 303.328125 148.957031 303.890625 C 147.902344 304.453125 146.839844 304.988281 145.757812 305.5 C 144.679688 306.007812 143.589844 306.492188 142.488281 306.949219 C 141.386719 307.40625 140.273438 307.835938 139.148438 308.238281 C 138.023438 308.640625 136.890625 309.015625 135.75 309.359375 C 134.609375 309.707031 133.457031 310.023438 132.300781 310.316406 C 131.144531 310.605469 129.980469 310.867188 128.808594 311.097656 C 127.636719 311.332031 126.460938 311.535156 125.28125 311.710938 C 124.101562 311.886719 122.917969 312.03125 121.730469 312.148438 C 120.542969 312.265625 119.351562 312.355469 118.160156 312.414062 C 116.96875 312.46875 115.777344 312.5 114.582031 312.5 C 113.390625 312.5 112.199219 312.46875 111.003906 312.414062 C 109.8125 312.355469 108.625 312.265625 107.4375 312.148438 C 106.25 312.03125 105.066406 311.886719 103.882812 311.710938 C 102.703125 311.535156 101.527344 311.332031 100.359375 311.097656 C 99.1875 310.867188 98.023438 310.605469 96.867188 310.316406 C 95.707031 310.023438 94.558594 309.707031 93.417969 309.359375 C 92.273438 309.015625 91.140625 308.640625 90.019531 308.238281 C 88.894531 307.835938 87.78125 307.40625 86.679688 306.949219 C 85.578125 306.492188 84.484375 306.007812 83.40625 305.5 C 82.328125 304.988281 81.261719 304.453125 80.210938 303.890625 C 79.160156 303.328125 78.121094 302.738281 77.097656 302.125 C 76.074219 301.511719 75.066406 300.875 74.074219 300.210938 C 73.082031 299.546875 72.105469 298.863281 71.148438 298.152344 C 70.1875 297.441406 69.246094 296.707031 68.324219 295.949219 C 67.402344 295.191406 66.5 294.414062 65.617188 293.609375 C 64.730469 292.808594 63.867188 291.988281 63.023438 291.144531 C 62.179688 290.300781 61.355469 289.433594 60.554688 288.550781 C 59.753906 287.667969 58.976562 286.761719 58.21875 285.839844 C 57.460938 284.917969 56.726562 283.976562 56.015625 283.019531 C 55.304688 282.0625 54.617188 281.085938 53.957031 280.09375 C 53.292969 279.101562 52.652344 278.09375 52.039062 277.070312 C 51.425781 276.046875 50.839844 275.007812 50.277344 273.957031 C 49.714844 272.902344 49.175781 271.839844 48.667969 270.757812 C 48.15625 269.679688 47.671875 268.589844 47.21875 267.488281 C 46.761719 266.386719 46.332031 265.273438 45.929688 264.148438 C 45.527344 263.023438 45.152344 261.890625 44.804688 260.75 C 44.460938 259.609375 44.140625 258.457031 43.851562 257.300781 C 43.5625 256.144531 43.300781 254.980469 43.066406 253.808594 C 42.835938 252.636719 42.632812 251.460938 42.457031 250.28125 C 42.28125 249.101562 42.132812 247.917969 42.019531 246.730469 C 41.902344 245.542969 41.8125 244.351562 41.753906 243.160156 C 41.695312 241.96875 41.667969 240.777344 41.667969 239.582031 C 41.667969 238.390625 41.695312 237.199219 41.753906 236.003906 C 41.8125 234.8125 41.902344 233.625 42.019531 232.4375 C 42.132812 231.25 42.28125 230.066406 42.457031 228.882812 C 42.632812 227.703125 42.835938 226.527344 43.066406 225.359375 C 43.300781 224.1875 43.5625 223.023438 43.851562 221.867188 C 44.140625 220.707031 44.460938 219.558594 44.804688 218.417969 C 45.152344 217.273438 45.527344 216.140625 45.929688 215.019531 C 46.332031 213.894531 46.761719 212.78125 47.21875 211.679688 C 47.671875 210.578125 48.15625 209.484375 48.667969 208.40625 C 49.175781 207.328125 49.714844 206.261719 50.277344 205.210938 C 50.839844 204.15625 51.425781 203.121094 52.039062 202.097656 C 52.652344 201.074219 53.292969 200.066406 53.957031 199.074219 C 54.617188 198.082031 55.304688 197.105469 56.015625 196.148438 C 56.726562 195.1875 57.460938 194.246094 58.21875 193.324219 C 58.976562 192.402344 59.753906 191.5 60.554688 190.617188 C 61.355469 189.730469 62.179688 188.867188 63.023438 188.023438 C 63.867188 187.179688 64.730469 186.355469 65.617188 185.554688 C 66.5 184.753906 67.402344 183.976562 68.324219 183.21875 C 69.246094 182.460938 70.1875 181.726562 71.148438 181.015625 C 72.105469 180.304688 73.082031 179.617188 74.074219 178.957031 C 75.066406 178.292969 76.074219 177.652344 77.097656 177.039062 C 78.121094 176.425781 79.160156 175.839844 80.210938 175.277344 C 81.261719 174.714844 82.328125 174.175781 83.40625 173.667969 C 84.484375 173.15625 85.578125 172.671875 86.679688 172.21875 C 87.78125 171.761719 88.894531 171.332031 90.019531 170.929688 C 91.140625 170.527344 92.273438 170.152344 93.417969 169.804688 C 94.558594 169.460938 95.707031 169.140625 96.867188 168.851562 C 98.023438 168.5625 99.1875 168.300781 100.359375 168.066406 C 101.527344 167.835938 102.703125 167.632812 103.882812 167.457031 C 105.066406 167.28125 106.25 167.132812 107.4375 167.019531 C 108.625 166.902344 109.8125 166.8125 111.003906 166.753906 C 112.199219 166.695312 113.390625 166.667969 114.582031 166.667969 C 115.777344 166.667969 116.96875 166.695312 118.160156 166.753906 C 119.351562 166.8125 120.542969 166.902344 121.730469 167.019531 C 122.917969 167.132812 124.101562 167.28125 125.28125 167.457031 C 126.460938 167.632812 127.636719 167.835938 128.808594 168.066406 C 129.980469 168.300781 131.144531 168.5625 132.300781 168.851562 C 133.457031 169.140625 134.609375 169.460938 135.75 169.804688 C 136.890625 170.152344 138.023438 170.527344 139.148438 170.929688 C 140.273438 171.332031 141.386719 171.761719 142.488281 172.21875 C 143.589844 172.671875 144.679688 173.15625 145.757812 173.667969 C 146.839844 174.175781 147.902344 174.714844 148.957031 175.277344 C 150.007812 175.839844 151.046875 176.425781 152.070312 177.039062 C 153.09375 177.652344 154.101562 178.292969 155.09375 178.957031 C 156.085938 179.617188 157.0625 180.304688 158.019531 181.015625 C 158.976562 181.726562 159.917969 182.460938 160.839844 183.21875 C 161.761719 183.976562 162.667969 184.753906 163.550781 185.554688 C 164.433594 186.355469 165.300781 187.179688 166.144531 188.023438 C 166.988281 188.867188 167.808594 189.730469 168.609375 190.617188 C 169.414062 191.5 170.191406 192.402344 170.949219 193.324219 C 171.707031 194.246094 172.441406 195.1875 173.152344 196.148438 C 173.863281 197.105469 174.546875 198.082031 175.210938 199.074219 C 175.875 200.066406 176.511719 201.074219 177.125 202.097656 C 177.738281 203.121094 178.328125 204.15625 178.890625 205.210938 C 179.453125 206.261719 179.988281 207.328125 180.5 208.40625 C 181.007812 209.484375 181.492188 210.578125 181.949219 211.679688 C 182.40625 212.78125 182.835938 213.894531 183.238281 215.019531 C 183.640625 216.140625 184.015625 217.273438 184.359375 218.417969 C 184.707031 219.558594 185.023438 220.707031 185.316406 221.867188 C 185.605469 223.023438 185.867188 224.1875 186.097656 225.359375 C 186.332031 226.527344 186.535156 227.703125 186.710938 228.882812 C 186.886719 230.066406 187.03125 231.25 187.148438 232.4375 C 187.265625 233.625 187.355469 234.8125 187.414062 236.003906 C 187.472656 237.199219 187.5 238.390625 187.5 239.582031 Z M 187.5 239.582031 " fill-opacity="1" fill-rule="nonzero"/><path fill="#21a366" d="M 93.75 229.167969 C 59.28125 229.167969 27.207031 234.46875 0 243.488281 L 0 354.167969 C 0 365.675781 9.324219 375 20.832031 375 L 240.96875 375 C 259.8125 360.105469 270.832031 342.199219 270.832031 322.917969 C 270.832031 271.136719 191.550781 229.167969 93.75 229.167969 Z M 93.75 229.167969 " fill-opacity="1" fill-rule="nonzero"/><g clip-path="url(#573b60befa)"><g clip-path="url(#0407803cbf)"><path fill="url(#37bf90a6c5)" d="M 260.417969 93.199219 L 260.417969 260.417969 L 291.667969 260.417969 L 291.667969 93.199219 Z M 260.417969 93.199219 " fill-rule="nonzero"/></g></g><g clip-path="url(#0b2d392aa8)"><g clip-path="url(#8971d60098)"><path fill="url(#c4ca6dee38)" d="M 208.332031 41.667969 L 208.332031 208.332031 L 343.75 208.332031 L 343.75 41.667969 Z M 208.332031 41.667969 " fill-rule="nonzero"/></g></g><g clip-path="url(#4e8959441c)"><g clip-path="url(#2e8ff3d51d)"><path fill="url(#ae18fb2ccc)" d="M 0 239.582031 L 0 375 L 375 375 L 375 239.582031 Z M 0 239.582031 " fill-rule="nonzero"/></g></g></svg>