<svg xmlns="http://www.w3.org/2000/svg" xmlns:xlink="http://www.w3.org/1999/xlink" width="500" zoomAndPan="magnify" viewBox="0 0 375 374.999991" height="500" preserveAspectRatio="xMidYMid meet" version="1.0"><path fill="#80d8ff" d="M 375 333.332031 L 375 41.667969 C 375 18.65625 356.34375 0 333.332031 0 L 41.667969 0 C 18.65625 0 0 18.65625 0 41.667969 L 0 333.332031 C 0 356.34375 18.65625 375 41.667969 375 L 333.332031 375 C 356.34375 375 375 356.34375 375 333.332031 Z M 375 333.332031 " fill-opacity="1" fill-rule="nonzero"/><path fill="#ffeb3b" d="M 145.832031 93.75 C 145.832031 64.9375 122.519531 41.667969 93.75 41.667969 C 64.980469 41.667969 41.667969 64.9375 41.667969 93.75 C 41.667969 122.519531 64.980469 145.832031 93.75 145.832031 C 122.519531 145.832031 145.832031 122.519531 145.832031 93.75 " fill-opacity="1" fill-rule="nonzero"/><path fill="#795548" d="M 260.417969 177.082031 L 291.667969 177.082031 L 291.667969 260.417969 L 260.417969 260.417969 Z M 260.417969 177.082031 " fill-opacity="1" fill-rule="nonzero"/><path fill="#7cb342" d="M 270.832031 88.542969 C 270.832031 89.394531 270.792969 90.246094 270.707031 91.09375 C 270.625 91.941406 270.5 92.785156 270.332031 93.621094 C 270.167969 94.457031 269.960938 95.285156 269.710938 96.101562 C 269.464844 96.917969 269.175781 97.71875 268.851562 98.507812 C 268.523438 99.296875 268.160156 100.066406 267.757812 100.816406 C 267.355469 101.570312 266.917969 102.300781 266.445312 103.007812 C 265.96875 103.71875 265.464844 104.402344 264.921875 105.0625 C 264.382812 105.722656 263.808594 106.351562 263.207031 106.957031 C 262.601562 107.558594 261.972656 108.132812 261.3125 108.671875 C 260.652344 109.214844 259.96875 109.71875 259.257812 110.195312 C 258.550781 110.667969 257.820312 111.105469 257.066406 111.507812 C 256.316406 111.910156 255.546875 112.273438 254.757812 112.601562 C 253.96875 112.925781 253.167969 113.214844 252.351562 113.460938 C 251.535156 113.710938 250.707031 113.917969 249.871094 114.082031 C 249.035156 114.25 248.191406 114.375 247.34375 114.457031 C 246.496094 114.542969 245.644531 114.582031 244.792969 114.582031 C 243.9375 114.582031 243.089844 114.542969 242.238281 114.457031 C 241.390625 114.375 240.546875 114.25 239.710938 114.082031 C 238.875 113.917969 238.046875 113.710938 237.230469 113.460938 C 236.414062 113.214844 235.613281 112.925781 234.824219 112.601562 C 234.039062 112.273438 233.269531 111.910156 232.515625 111.507812 C 231.761719 111.105469 231.03125 110.667969 230.324219 110.195312 C 229.613281 109.71875 228.929688 109.214844 228.269531 108.671875 C 227.613281 108.132812 226.980469 107.558594 226.378906 106.957031 C 225.773438 106.351562 225.203125 105.722656 224.660156 105.0625 C 224.121094 104.402344 223.613281 103.71875 223.140625 103.007812 C 222.664062 102.300781 222.226562 101.570312 221.824219 100.816406 C 221.421875 100.066406 221.058594 99.296875 220.730469 98.507812 C 220.40625 97.71875 220.117188 96.917969 219.871094 96.101562 C 219.625 95.285156 219.417969 94.457031 219.25 93.621094 C 219.082031 92.785156 218.957031 91.941406 218.875 91.09375 C 218.792969 90.246094 218.75 89.394531 218.75 88.542969 C 218.75 87.6875 218.792969 86.839844 218.875 85.988281 C 218.957031 85.140625 219.082031 84.296875 219.25 83.460938 C 219.417969 82.625 219.625 81.796875 219.871094 80.980469 C 220.117188 80.164062 220.40625 79.363281 220.730469 78.574219 C 221.058594 77.789062 221.421875 77.019531 221.824219 76.265625 C 222.226562 75.511719 222.664062 74.78125 223.140625 74.074219 C 223.613281 73.363281 224.121094 72.679688 224.660156 72.019531 C 225.203125 71.363281 225.773438 70.730469 226.378906 70.128906 C 226.980469 69.523438 227.613281 68.953125 228.269531 68.410156 C 228.929688 67.871094 229.613281 67.363281 230.324219 66.890625 C 231.03125 66.414062 231.761719 65.976562 232.515625 65.574219 C 233.269531 65.171875 234.039062 64.808594 234.824219 64.480469 C 235.613281 64.15625 236.414062 63.867188 237.230469 63.621094 C 238.046875 63.375 238.875 63.167969 239.710938 63 C 240.546875 62.835938 241.390625 62.710938 242.238281 62.625 C 243.089844 62.542969 243.9375 62.5 244.792969 62.5 C 245.644531 62.5 246.496094 62.542969 247.34375 62.625 C 248.191406 62.710938 249.035156 62.835938 249.871094 63 C 250.707031 63.167969 251.535156 63.375 252.351562 63.621094 C 253.167969 63.867188 253.96875 64.15625 254.757812 64.480469 C 255.546875 64.808594 256.316406 65.171875 257.066406 65.574219 C 257.820312 65.976562 258.550781 66.414062 259.257812 66.890625 C 259.96875 67.363281 260.652344 67.871094 261.3125 68.410156 C 261.972656 68.953125 262.601562 69.523438 263.207031 70.128906 C 263.808594 70.730469 264.382812 71.363281 264.921875 72.019531 C 265.464844 72.679688 265.96875 73.363281 266.445312 74.074219 C 266.917969 74.78125 267.355469 75.511719 267.757812 76.265625 C 268.160156 77.019531 268.523438 77.789062 268.851562 78.574219 C 269.175781 79.363281 269.464844 80.164062 269.710938 80.980469 C 269.960938 81.796875 270.167969 82.625 270.332031 83.460938 C 270.5 84.296875 270.625 85.140625 270.707031 85.988281 C 270.792969 86.839844 270.832031 87.6875 270.832031 88.542969 Z M 270.832031 88.542969 " fill-opacity="1" fill-rule="nonzero"/><path fill="#7cb342" d="M 333.332031 88.542969 C 333.332031 89.394531 333.292969 90.246094 333.207031 91.09375 C 333.125 91.941406 333 92.785156 332.832031 93.621094 C 332.667969 94.457031 332.460938 95.285156 332.210938 96.101562 C 331.964844 96.917969 331.675781 97.71875 331.351562 98.507812 C 331.023438 99.296875 330.660156 100.066406 330.257812 100.816406 C 329.855469 101.570312 329.417969 102.300781 328.945312 103.007812 C 328.46875 103.71875 327.964844 104.402344 327.421875 105.0625 C 326.882812 105.722656 326.308594 106.351562 325.707031 106.957031 C 325.101562 107.558594 324.472656 108.132812 323.8125 108.671875 C 323.152344 109.214844 322.46875 109.71875 321.757812 110.195312 C 321.050781 110.667969 320.320312 111.105469 319.566406 111.507812 C 318.816406 111.910156 318.046875 112.273438 317.257812 112.601562 C 316.46875 112.925781 315.667969 113.214844 314.851562 113.460938 C 314.035156 113.710938 313.207031 113.917969 312.371094 114.082031 C 311.535156 114.25 310.691406 114.375 309.84375 114.457031 C 308.996094 114.542969 308.144531 114.582031 307.292969 114.582031 C 306.4375 114.582031 305.589844 114.542969 304.738281 114.457031 C 303.890625 114.375 303.046875 114.25 302.210938 114.082031 C 301.375 113.917969 300.546875 113.710938 299.730469 113.460938 C 298.914062 113.214844 298.113281 112.925781 297.324219 112.601562 C 296.539062 112.273438 295.769531 111.910156 295.015625 111.507812 C 294.261719 111.105469 293.53125 110.667969 292.824219 110.195312 C 292.113281 109.71875 291.429688 109.214844 290.769531 108.671875 C 290.113281 108.132812 289.480469 107.558594 288.878906 106.957031 C 288.273438 106.351562 287.703125 105.722656 287.160156 105.0625 C 286.621094 104.402344 286.113281 103.71875 285.640625 103.007812 C 285.164062 102.300781 284.726562 101.570312 284.324219 100.816406 C 283.921875 100.066406 283.558594 99.296875 283.230469 98.507812 C 282.90625 97.71875 282.617188 96.917969 282.371094 96.101562 C 282.125 95.285156 281.917969 94.457031 281.75 93.621094 C 281.582031 92.785156 281.460938 91.941406 281.375 91.09375 C 281.292969 90.246094 281.25 89.394531 281.25 88.542969 C 281.25 87.6875 281.292969 86.839844 281.375 85.988281 C 281.460938 85.140625 281.582031 84.296875 281.75 83.460938 C 281.917969 82.625 282.125 81.796875 282.371094 80.980469 C 282.617188 80.164062 282.90625 79.363281 283.230469 78.574219 C 283.558594 77.789062 283.921875 77.019531 284.324219 76.265625 C 284.726562 75.511719 285.164062 74.78125 285.640625 74.074219 C 286.113281 73.363281 286.621094 72.679688 287.160156 72.019531 C 287.703125 71.363281 288.273438 70.730469 288.878906 70.128906 C 289.480469 69.523438 290.113281 68.953125 290.769531 68.410156 C 291.429688 67.871094 292.113281 67.363281 292.824219 66.890625 C 293.53125 66.414062 294.261719 65.976562 295.015625 65.574219 C 295.769531 65.171875 296.539062 64.808594 297.324219 64.480469 C 298.113281 64.15625 298.914062 63.867188 299.730469 63.621094 C 300.546875 63.375 301.375 63.167969 302.210938 63 C 303.046875 62.835938 303.890625 62.710938 304.738281 62.625 C 305.589844 62.542969 306.4375 62.5 307.292969 62.5 C 308.144531 62.5 308.996094 62.542969 309.84375 62.625 C 310.691406 62.710938 311.535156 62.835938 312.371094 63 C 313.207031 63.167969 314.035156 63.375 314.851562 63.621094 C 315.667969 63.867188 316.46875 64.15625 317.257812 64.480469 C 318.046875 64.808594 318.816406 65.171875 319.566406 65.574219 C 320.320312 65.976562 321.050781 66.414062 321.757812 66.890625 C 322.46875 67.363281 323.152344 67.871094 323.8125 68.410156 C 324.472656 68.953125 325.101562 69.523438 325.707031 70.128906 C 326.308594 70.730469 326.882812 71.363281 327.421875 72.019531 C 327.964844 72.679688 328.46875 73.363281 328.945312 74.074219 C 329.417969 74.78125 329.855469 75.511719 330.257812 76.265625 C 330.660156 77.019531 331.023438 77.789062 331.351562 78.574219 C 331.675781 79.363281 331.964844 80.164062 332.210938 80.980469 C 332.460938 81.796875 332.667969 82.625 332.832031 83.460938 C 333 84.296875 333.125 85.140625 333.207031 85.988281 C 333.292969 86.839844 333.332031 87.6875 333.332031 88.542969 Z M 333.332031 88.542969 " fill-opacity="1" fill-rule="nonzero"/><path fill="#7cb342" d="M 270.832031 161.457031 C 270.832031 162.3125 270.792969 163.160156 270.707031 164.011719 C 270.625 164.859375 270.5 165.703125 270.332031 166.539062 C 270.167969 167.375 269.960938 168.203125 269.710938 169.019531 C 269.464844 169.835938 269.175781 170.636719 268.851562 171.425781 C 268.523438 172.210938 268.160156 172.980469 267.757812 173.734375 C 267.355469 174.488281 266.917969 175.21875 266.445312 175.925781 C 265.96875 176.636719 265.464844 177.320312 264.921875 177.980469 C 264.382812 178.636719 263.808594 179.269531 263.207031 179.871094 C 262.601562 180.476562 261.972656 181.046875 261.3125 181.589844 C 260.652344 182.128906 259.96875 182.636719 259.257812 183.109375 C 258.550781 183.585938 257.820312 184.023438 257.066406 184.425781 C 256.316406 184.828125 255.546875 185.191406 254.757812 185.519531 C 253.96875 185.84375 253.167969 186.132812 252.351562 186.378906 C 251.535156 186.625 250.707031 186.832031 249.871094 187 C 249.035156 187.164062 248.191406 187.289062 247.34375 187.375 C 246.496094 187.457031 245.644531 187.5 244.792969 187.5 C 243.9375 187.5 243.089844 187.457031 242.238281 187.375 C 241.390625 187.289062 240.546875 187.164062 239.710938 187 C 238.875 186.832031 238.046875 186.625 237.230469 186.378906 C 236.414062 186.132812 235.613281 185.84375 234.824219 185.519531 C 234.039062 185.191406 233.269531 184.828125 232.515625 184.425781 C 231.761719 184.023438 231.03125 183.585938 230.324219 183.109375 C 229.613281 182.636719 228.929688 182.128906 228.269531 181.589844 C 227.613281 181.046875 226.980469 180.476562 226.378906 179.871094 C 225.773438 179.269531 225.203125 178.636719 224.660156 177.980469 C 224.121094 177.320312 223.613281 176.636719 223.140625 175.925781 C 222.664062 175.21875 222.226562 174.488281 221.824219 173.734375 C 221.421875 172.980469 221.058594 172.210938 220.730469 171.425781 C 220.40625 170.636719 220.117188 169.835938 219.871094 169.019531 C 219.625 168.203125 219.417969 167.375 219.25 166.539062 C 219.082031 165.703125 218.957031 164.859375 218.875 164.011719 C 218.792969 163.160156 218.75 162.3125 218.75 161.457031 C 218.75 160.605469 218.792969 159.753906 218.875 158.90625 C 218.957031 158.058594 219.082031 157.214844 219.25 156.378906 C 219.417969 155.542969 219.625 154.714844 219.871094 153.898438 C 220.117188 153.082031 220.40625 152.28125 220.730469 151.492188 C 221.058594 150.703125 221.421875 149.933594 221.824219 149.183594 C 222.226562 148.429688 222.664062 147.699219 223.140625 146.992188 C 223.613281 146.28125 224.121094 145.597656 224.660156 144.9375 C 225.203125 144.277344 225.773438 143.648438 226.378906 143.042969 C 226.980469 142.441406 227.613281 141.867188 228.269531 141.328125 C 228.929688 140.785156 229.613281 140.28125 230.324219 139.804688 C 231.03125 139.332031 231.761719 138.894531 232.515625 138.492188 C 233.269531 138.089844 234.039062 137.726562 234.824219 137.398438 C 235.613281 137.074219 236.414062 136.785156 237.230469 136.539062 C 238.046875 136.289062 238.875 136.082031 239.710938 135.917969 C 240.546875 135.75 241.390625 135.625 242.238281 135.542969 C 243.089844 135.457031 243.9375 135.417969 244.792969 135.417969 C 245.644531 135.417969 246.496094 135.457031 247.34375 135.542969 C 248.191406 135.625 249.035156 135.75 249.871094 135.917969 C 250.707031 136.082031 251.535156 136.289062 252.351562 136.539062 C 253.167969 136.785156 253.96875 137.074219 254.757812 137.398438 C 255.546875 137.726562 256.316406 138.089844 257.066406 138.492188 C 257.820312 138.894531 258.550781 139.332031 259.257812 139.804688 C 259.96875 140.28125 260.652344 140.785156 261.3125 141.328125 C 261.972656 141.867188 262.601562 142.441406 263.207031 143.042969 C 263.808594 143.648438 264.382812 144.277344 264.921875 144.9375 C 265.464844 145.597656 265.96875 146.28125 266.445312 146.992188 C 266.917969 147.699219 267.355469 148.429688 267.757812 149.183594 C 268.160156 149.933594 268.523438 150.703125 268.851562 151.492188 C 269.175781 152.28125 269.464844 153.082031 269.710938 153.898438 C 269.960938 154.714844 270.167969 155.542969 270.332031 156.378906 C 270.5 157.214844 270.625 158.058594 270.707031 158.90625 C 270.792969 159.753906 270.832031 160.605469 270.832031 161.457031 Z M 270.832031 161.457031 " fill-opacity="1" fill-rule="nonzero"/><path fill="#7cb342" d="M 333.332031 161.457031 C 333.332031 162.3125 333.292969 163.160156 333.207031 164.011719 C 333.125 164.859375 333 165.703125 332.832031 166.539062 C 332.667969 167.375 332.460938 168.203125 332.210938 169.019531 C 331.964844 169.835938 331.675781 170.636719 331.351562 171.425781 C 331.023438 172.210938 330.660156 172.980469 330.257812 173.734375 C 329.855469 174.488281 329.417969 175.21875 328.945312 175.925781 C 328.46875 176.636719 327.964844 177.320312 327.421875 177.980469 C 326.882812 178.636719 326.308594 179.269531 325.707031 179.871094 C 325.101562 180.476562 324.472656 181.046875 323.8125 181.589844 C 323.152344 182.128906 322.46875 182.636719 321.757812 183.109375 C 321.050781 183.585938 320.320312 184.023438 319.566406 184.425781 C 318.816406 184.828125 318.046875 185.191406 317.257812 185.519531 C 316.46875 185.84375 315.667969 186.132812 314.851562 186.378906 C 314.035156 186.625 313.207031 186.832031 312.371094 187 C 311.535156 187.164062 310.691406 187.289062 309.84375 187.375 C 308.996094 187.457031 308.144531 187.5 307.292969 187.5 C 306.4375 187.5 305.589844 187.457031 304.738281 187.375 C 303.890625 187.289062 303.046875 187.164062 302.210938 187 C 301.375 186.832031 300.546875 186.625 299.730469 186.378906 C 298.914062 186.132812 298.113281 185.84375 297.324219 185.519531 C 296.539062 185.191406 295.769531 184.828125 295.015625 184.425781 C 294.261719 184.023438 293.53125 183.585938 292.824219 183.109375 C 292.113281 182.636719 291.429688 182.128906 290.769531 181.589844 C 290.113281 181.046875 289.480469 180.476562 288.878906 179.871094 C 288.273438 179.269531 287.703125 178.636719 287.160156 177.980469 C 286.621094 177.320312 286.113281 176.636719 285.640625 175.925781 C 285.164062 175.21875 284.726562 174.488281 284.324219 173.734375 C 283.921875 172.980469 283.558594 172.210938 283.230469 171.425781 C 282.90625 170.636719 282.617188 169.835938 282.371094 169.019531 C 282.125 168.203125 281.917969 167.375 281.75 166.539062 C 281.582031 165.703125 281.460938 164.859375 281.375 164.011719 C 281.292969 163.160156 281.25 162.3125 281.25 161.457031 C 281.25 160.605469 281.292969 159.753906 281.375 158.90625 C 281.460938 158.058594 281.582031 157.214844 281.75 156.378906 C 281.917969 155.542969 282.125 154.714844 282.371094 153.898438 C 282.617188 153.082031 282.90625 152.28125 283.230469 151.492188 C 283.558594 150.703125 283.921875 149.933594 284.324219 149.183594 C 284.726562 148.429688 285.164062 147.699219 285.640625 146.992188 C 286.113281 146.28125 286.621094 145.597656 287.160156 144.9375 C 287.703125 144.277344 288.273438 143.648438 288.878906 143.042969 C 289.480469 142.441406 290.113281 141.867188 290.769531 141.328125 C 291.429688 140.785156 292.113281 140.28125 292.824219 139.804688 C 293.53125 139.332031 294.261719 138.894531 295.015625 138.492188 C 295.769531 138.089844 296.539062 137.726562 297.324219 137.398438 C 298.113281 137.074219 298.914062 136.785156 299.730469 136.539062 C 300.546875 136.289062 301.375 136.082031 302.210938 135.917969 C 303.046875 135.75 303.890625 135.625 304.738281 135.542969 C 305.589844 135.457031 306.4375 135.417969 307.292969 135.417969 C 308.144531 135.417969 308.996094 135.457031 309.84375 135.542969 C 310.691406 135.625 311.535156 135.75 312.371094 135.917969 C 313.207031 136.082031 314.035156 136.289062 314.851562 136.539062 C 315.667969 136.785156 316.46875 137.074219 317.257812 137.398438 C 318.046875 137.726562 318.816406 138.089844 319.566406 138.492188 C 320.320312 138.894531 321.050781 139.332031 321.757812 139.804688 C 322.46875 140.28125 323.152344 140.785156 323.8125 141.328125 C 324.472656 141.867188 325.101562 142.441406 325.707031 143.042969 C 326.308594 143.648438 326.882812 144.277344 327.421875 144.9375 C 327.964844 145.597656 328.46875 146.28125 328.945312 146.992188 C 329.417969 147.699219 329.855469 148.429688 330.257812 149.183594 C 330.660156 149.933594 331.023438 150.703125 331.351562 151.492188 C 331.675781 152.28125 331.964844 153.082031 332.210938 153.898438 C 332.460938 154.714844 332.667969 155.542969 332.832031 156.378906 C 333 157.214844 333.125 158.058594 333.207031 158.90625 C 333.292969 159.753906 333.332031 160.605469 333.332031 161.457031 Z M 333.332031 161.457031 " fill-opacity="1" fill-rule="nonzero"/><path fill="#7cb342" d="M 260.417969 119.792969 C 260.417969 120.644531 260.375 121.496094 260.292969 122.34375 C 260.207031 123.191406 260.082031 124.035156 259.917969 124.871094 C 259.75 125.707031 259.542969 126.535156 259.296875 127.351562 C 259.046875 128.167969 258.761719 128.96875 258.433594 129.757812 C 258.109375 130.546875 257.742188 131.316406 257.339844 132.066406 C 256.941406 132.820312 256.5 133.550781 256.027344 134.257812 C 255.554688 134.96875 255.046875 135.652344 254.503906 136.3125 C 253.964844 136.972656 253.390625 137.601562 252.789062 138.207031 C 252.1875 138.808594 251.554688 139.382812 250.894531 139.921875 C 250.238281 140.464844 249.550781 140.96875 248.84375 141.445312 C 248.132812 141.917969 247.402344 142.355469 246.652344 142.757812 C 245.898438 143.160156 245.128906 143.523438 244.339844 143.851562 C 243.550781 144.175781 242.75 144.464844 241.933594 144.710938 C 241.117188 144.960938 240.292969 145.167969 239.457031 145.332031 C 238.617188 145.5 237.777344 145.625 236.925781 145.707031 C 236.078125 145.792969 235.226562 145.832031 234.375 145.832031 C 233.523438 145.832031 232.671875 145.792969 231.824219 145.707031 C 230.972656 145.625 230.132812 145.5 229.292969 145.332031 C 228.457031 145.167969 227.632812 144.960938 226.816406 144.710938 C 226 144.464844 225.195312 144.175781 224.410156 143.851562 C 223.621094 143.523438 222.851562 143.160156 222.097656 142.757812 C 221.347656 142.355469 220.617188 141.917969 219.90625 141.445312 C 219.199219 140.96875 218.511719 140.464844 217.855469 139.921875 C 217.195312 139.382812 216.5625 138.808594 215.960938 138.207031 C 215.359375 137.601562 214.785156 136.972656 214.246094 136.3125 C 213.703125 135.652344 213.195312 134.96875 212.722656 134.257812 C 212.25 133.550781 211.808594 132.820312 211.410156 132.066406 C 211.007812 131.316406 210.640625 130.546875 210.316406 129.757812 C 209.988281 128.96875 209.703125 128.167969 209.453125 127.351562 C 209.207031 126.535156 209 125.707031 208.832031 124.871094 C 208.667969 124.035156 208.542969 123.191406 208.457031 122.34375 C 208.375 121.496094 208.332031 120.644531 208.332031 119.792969 C 208.332031 118.9375 208.375 118.089844 208.457031 117.238281 C 208.542969 116.390625 208.667969 115.546875 208.832031 114.710938 C 209 113.875 209.207031 113.046875 209.453125 112.230469 C 209.703125 111.414062 209.988281 110.613281 210.316406 109.824219 C 210.640625 109.039062 211.007812 108.269531 211.410156 107.515625 C 211.808594 106.761719 212.25 106.03125 212.722656 105.324219 C 213.195312 104.613281 213.703125 103.929688 214.246094 103.269531 C 214.785156 102.613281 215.359375 101.980469 215.960938 101.378906 C 216.5625 100.773438 217.195312 100.203125 217.855469 99.660156 C 218.511719 99.121094 219.199219 98.613281 219.90625 98.140625 C 220.617188 97.664062 221.347656 97.226562 222.097656 96.824219 C 222.851562 96.421875 223.621094 96.058594 224.410156 95.730469 C 225.195312 95.40625 226 95.117188 226.816406 94.871094 C 227.632812 94.625 228.457031 94.417969 229.292969 94.25 C 230.132812 94.085938 230.972656 93.960938 231.824219 93.875 C 232.671875 93.792969 233.523438 93.75 234.375 93.75 C 235.226562 93.75 236.078125 93.792969 236.925781 93.875 C 237.777344 93.960938 238.617188 94.085938 239.457031 94.25 C 240.292969 94.417969 241.117188 94.625 241.933594 94.871094 C 242.75 95.117188 243.550781 95.40625 244.339844 95.730469 C 245.128906 96.058594 245.898438 96.421875 246.652344 96.824219 C 247.402344 97.226562 248.132812 97.664062 248.84375 98.140625 C 249.550781 98.613281 250.238281 99.121094 250.894531 99.660156 C 251.554688 100.203125 252.1875 100.773438 252.789062 101.378906 C 253.390625 101.980469 253.964844 102.613281 254.503906 103.269531 C 255.046875 103.929688 255.554688 104.613281 256.027344 105.324219 C 256.5 106.03125 256.941406 106.761719 257.339844 107.515625 C 257.742188 108.269531 258.109375 109.039062 258.433594 109.824219 C 258.761719 110.613281 259.046875 111.414062 259.296875 112.230469 C 259.542969 113.046875 259.75 113.875 259.917969 114.710938 C 260.082031 115.546875 260.207031 116.390625 260.292969 117.238281 C 260.375 118.089844 260.417969 118.9375 260.417969 119.792969 Z M 260.417969 119.792969 " fill-opacity="1" fill-rule="nonzero"/><path fill="#7cb342" d="M 343.75 119.792969 C 343.75 120.644531 343.707031 121.496094 343.625 122.34375 C 343.539062 123.191406 343.414062 124.035156 343.25 124.871094 C 343.082031 125.707031 342.875 126.535156 342.628906 127.351562 C 342.382812 128.167969 342.09375 128.96875 341.769531 129.757812 C 341.441406 130.546875 341.078125 131.316406 340.675781 132.066406 C 340.273438 132.820312 339.835938 133.550781 339.359375 134.257812 C 338.886719 134.96875 338.378906 135.652344 337.839844 136.3125 C 337.296875 136.972656 336.726562 137.601562 336.121094 138.207031 C 335.519531 138.808594 334.886719 139.382812 334.230469 139.921875 C 333.570312 140.464844 332.886719 140.96875 332.175781 141.445312 C 331.46875 141.917969 330.738281 142.355469 329.984375 142.757812 C 329.230469 143.160156 328.460938 143.523438 327.675781 143.851562 C 326.886719 144.175781 326.085938 144.464844 325.269531 144.710938 C 324.453125 144.960938 323.625 145.167969 322.789062 145.332031 C 321.953125 145.5 321.109375 145.625 320.261719 145.707031 C 319.410156 145.792969 318.5625 145.832031 317.707031 145.832031 C 316.855469 145.832031 316.003906 145.792969 315.15625 145.707031 C 314.308594 145.625 313.464844 145.5 312.628906 145.332031 C 311.792969 145.167969 310.964844 144.960938 310.148438 144.710938 C 309.332031 144.464844 308.53125 144.175781 307.742188 143.851562 C 306.953125 143.523438 306.183594 143.160156 305.433594 142.757812 C 304.679688 142.355469 303.949219 141.917969 303.242188 141.445312 C 302.53125 140.96875 301.847656 140.464844 301.1875 139.921875 C 300.527344 139.382812 299.898438 138.808594 299.292969 138.207031 C 298.691406 137.601562 298.117188 136.972656 297.578125 136.3125 C 297.035156 135.652344 296.527344 134.96875 296.054688 134.257812 C 295.582031 133.550781 295.144531 132.820312 294.742188 132.066406 C 294.339844 131.316406 293.976562 130.546875 293.648438 129.757812 C 293.324219 128.96875 293.035156 128.167969 292.789062 127.351562 C 292.539062 126.535156 292.332031 125.707031 292.167969 124.871094 C 292 124.035156 291.875 123.191406 291.792969 122.34375 C 291.707031 121.496094 291.667969 120.644531 291.667969 119.792969 C 291.667969 118.9375 291.707031 118.089844 291.792969 117.238281 C 291.875 116.390625 292 115.546875 292.167969 114.710938 C 292.332031 113.875 292.539062 113.046875 292.789062 112.230469 C 293.035156 111.414062 293.324219 110.613281 293.648438 109.824219 C 293.976562 109.039062 294.339844 108.269531 294.742188 107.515625 C 295.144531 106.761719 295.582031 106.03125 296.054688 105.324219 C 296.527344 104.613281 297.035156 103.929688 297.578125 103.269531 C 298.117188 102.613281 298.691406 101.980469 299.292969 101.378906 C 299.898438 100.773438 300.527344 100.203125 301.1875 99.660156 C 301.847656 99.121094 302.53125 98.613281 303.242188 98.140625 C 303.949219 97.664062 304.679688 97.226562 305.433594 96.824219 C 306.183594 96.421875 306.953125 96.058594 307.742188 95.730469 C 308.53125 95.40625 309.332031 95.117188 310.148438 94.871094 C 310.964844 94.625 311.792969 94.417969 312.628906 94.25 C 313.464844 94.085938 314.308594 93.960938 315.15625 93.875 C 316.003906 93.792969 316.855469 93.75 317.707031 93.75 C 318.5625 93.75 319.410156 93.792969 320.261719 93.875 C 321.109375 93.960938 321.953125 94.085938 322.789062 94.25 C 323.625 94.417969 324.453125 94.625 325.269531 94.871094 C 326.085938 95.117188 326.886719 95.40625 327.675781 95.730469 C 328.460938 96.058594 329.230469 96.421875 329.984375 96.824219 C 330.738281 97.226562 331.46875 97.664062 332.175781 98.140625 C 332.886719 98.613281 333.570312 99.121094 334.230469 99.660156 C 334.886719 100.203125 335.519531 100.773438 336.121094 101.378906 C 336.726562 101.980469 337.296875 102.613281 337.839844 103.269531 C 338.378906 103.929688 338.886719 104.613281 339.359375 105.324219 C 339.835938 106.03125 340.273438 106.761719 340.675781 107.515625 C 341.078125 108.269531 341.441406 109.039062 341.769531 109.824219 C 342.09375 110.613281 342.382812 111.414062 342.628906 112.230469 C 342.875 113.046875 343.082031 113.875 343.25 114.710938 C 343.414062 115.546875 343.539062 116.390625 343.625 117.238281 C 343.707031 118.089844 343.75 118.9375 343.75 119.792969 Z M 343.75 119.792969 " fill-opacity="1" fill-rule="nonzero"/><path fill="#7cb342" d="M 276.042969 145.832031 C 290.4375 145.832031 302.082031 157.480469 302.082031 171.875 C 302.082031 186.269531 290.4375 197.917969 276.042969 197.917969 C 261.644531 197.917969 250 186.269531 250 171.875 C 250 157.480469 261.644531 145.832031 276.042969 145.832031 Z M 276.042969 145.832031 " fill-opacity="1" fill-rule="nonzero"/><path fill="#7cb342" d="M 276.042969 41.667969 C 290.4375 41.667969 302.082031 53.3125 302.082031 67.707031 C 302.082031 82.105469 290.4375 93.75 276.042969 93.75 C 261.644531 93.75 250 82.105469 250 67.707031 C 250 53.3125 261.644531 41.667969 276.042969 41.667969 Z M 276.042969 41.667969 " fill-opacity="1" fill-rule="nonzero"/><path fill="#7cb342" d="M 276.042969 67.707031 C 300.03125 67.707031 319.449219 92.9375 319.449219 124.136719 C 319.449219 155.332031 300.042969 180.5625 276.042969 180.5625 C 252.042969 180.5625 232.636719 155.324219 232.636719 124.136719 C 232.636719 92.949219 252.050781 67.707031 276.042969 67.707031 Z M 276.042969 67.707031 " fill-opacity="1" fill-rule="nonzero"/><path fill="#9ccc65" d="M 260.417969 320.832031 C 260.417969 328.75 260.417969 333.332031 260.417969 333.332031 L 0 333.332031 L 0 246.355469 C 27.1875 235.3125 61.042969 229.167969 97.8125 229.167969 C 144.894531 229.167969 187.292969 240.417969 216.980469 258.542969 C 243.855469 274.792969 260.417969 296.769531 260.417969 320.832031 Z M 260.417969 320.832031 " fill-opacity="1" fill-rule="nonzero"/><path fill="#7cb342" d="M 375 258.4375 L 375 333.332031 C 375 356.355469 356.355469 375 333.332031 375 L 41.667969 375 C 22.292969 375 5.9375 361.769531 1.355469 343.75 C 0.417969 340.417969 0 336.980469 0 333.332031 L 0 322.917969 L 72.917969 322.917969 C 130.519531 322.917969 168.230469 283.125 216.980469 258.542969 C 238.75 247.5 262.707031 239.582031 291.667969 239.582031 C 329.480469 239.582031 355.519531 247.707031 375 258.4375 Z M 375 258.4375 " fill-opacity="1" fill-rule="nonzero"/></svg>